# xmcd
#
# Track frame offsets:
#	150
#	15440
#	42699
#	62979
#	80399
#	98688
#	127169
#
# Disc length: 1941 seconds
#
# Revision: 10
# Processed by: cddbd v1.5.2PL0 Copyright (c) Steve Scherf et al.
# Submitted via: Jack! The Knife 20 Magnifico
#
DISCID=59079307
DTITLE=Children Of Bodom - Something Wild
DYEAR=1997
DGENRE=Metal
TTITLE0=Deadnight Warrior
TTITLE1=In The Shadows
TTITLE2=Red Light In My Eyes, Pt. 1
TTITLE3=Red Light In My Eyes, Pt. 2
TTITLE4=Lake Bodom
TTITLE5=The Nail
TTITLE6=Touch Like Angel Of Death
EXTD=Anssi Kippo and Children Of Bodom
EXTT0=Alexi Laiho
EXTT1=Alexi Laiho
EXTT2=Alexi Laiho
EXTT3=Alexi Laiho
EXTT4=Alexi Laiho
EXTT5=Alexi Laiho
EXTT6=Alexi Laiho
PLAYORDER=
